<mxfile host="app.diagrams.net" modified="2020-08-11T17:01:49.492Z" agent="5.0 (Windows NT 10.0; Win64; x64) AppleWebKit/537.36 (KHTML, like Gecko) Chrome/84.0.4147.105 Safari/537.36" etag="tPTncKXAyl7odAZRF7fl" version="13.5.9" type="github">
  <diagram id="r9bfGYGLmaGkgBxddyXr" name="Page-1">
    <mxGraphModel dx="1422" dy="794" grid="1" gridSize="10" guides="1" tooltips="1" connect="1" arrows="1" fold="1" page="1" pageScale="1" pageWidth="827" pageHeight="1169" math="0" shadow="0">
      <root>
        <mxCell id="0" />
        <mxCell id="1" parent="0" />
        <mxCell id="-BAnb1DK9DFcd0QEzXmj-5" value="UIPanel" style="rounded=1;whiteSpace=wrap;html=1;" parent="1" vertex="1">
          <mxGeometry x="500" y="410" width="120" height="60" as="geometry" />
        </mxCell>
        <mxCell id="-BAnb1DK9DFcd0QEzXmj-6" value="UIRect" style="rounded=1;whiteSpace=wrap;html=1;" parent="1" vertex="1">
          <mxGeometry x="500" y="240" width="120" height="60" as="geometry" />
        </mxCell>
        <mxCell id="-BAnb1DK9DFcd0QEzXmj-7" value="Extends" style="endArrow=block;endSize=16;endFill=0;html=1;" parent="1" source="-BAnb1DK9DFcd0QEzXmj-5" target="-BAnb1DK9DFcd0QEzXmj-6" edge="1">
          <mxGeometry width="160" relative="1" as="geometry">
            <mxPoint x="240" y="420" as="sourcePoint" />
            <mxPoint x="400" y="420" as="targetPoint" />
          </mxGeometry>
        </mxCell>
        <mxCell id="-BAnb1DK9DFcd0QEzXmj-8" value="MonoBehaviour" style="verticalAlign=top;align=left;spacingTop=8;spacingLeft=2;spacingRight=12;shape=cube;size=10;direction=south;fontStyle=4;html=1;" parent="1" vertex="1">
          <mxGeometry x="510" y="50" width="110" height="80" as="geometry" />
        </mxCell>
        <mxCell id="-BAnb1DK9DFcd0QEzXmj-9" value="Extends" style="endArrow=block;endSize=16;endFill=0;html=1;" parent="1" source="-BAnb1DK9DFcd0QEzXmj-6" target="-BAnb1DK9DFcd0QEzXmj-8" edge="1">
          <mxGeometry width="160" relative="1" as="geometry">
            <mxPoint x="464.375" y="410" as="sourcePoint" />
            <mxPoint x="545.625" y="310" as="targetPoint" />
          </mxGeometry>
        </mxCell>
        <mxCell id="-BAnb1DK9DFcd0QEzXmj-10" value="UIDrawCall" style="rounded=1;whiteSpace=wrap;html=1;" parent="1" vertex="1">
          <mxGeometry x="360" y="240" width="120" height="60" as="geometry" />
        </mxCell>
        <mxCell id="-BAnb1DK9DFcd0QEzXmj-11" value="Extends" style="endArrow=block;endSize=16;endFill=0;html=1;" parent="1" source="-BAnb1DK9DFcd0QEzXmj-10" target="-BAnb1DK9DFcd0QEzXmj-8" edge="1">
          <mxGeometry width="160" relative="1" as="geometry">
            <mxPoint x="557.5" y="250" as="sourcePoint" />
            <mxPoint x="511.66666666666674" y="140" as="targetPoint" />
          </mxGeometry>
        </mxCell>
        <mxCell id="-BAnb1DK9DFcd0QEzXmj-12" value="Extends" style="endArrow=block;endSize=16;endFill=0;html=1;" parent="1" source="-BAnb1DK9DFcd0QEzXmj-13" target="-BAnb1DK9DFcd0QEzXmj-6" edge="1">
          <mxGeometry width="160" relative="1" as="geometry">
            <mxPoint x="380" y="420" as="sourcePoint" />
            <mxPoint x="700" y="300" as="targetPoint" />
          </mxGeometry>
        </mxCell>
        <mxCell id="-BAnb1DK9DFcd0QEzXmj-13" value="UIWidget" style="rounded=1;whiteSpace=wrap;html=1;" parent="1" vertex="1">
          <mxGeometry x="360" y="410" width="120" height="60" as="geometry" />
        </mxCell>
        <mxCell id="-BAnb1DK9DFcd0QEzXmj-14" value="UIGeometry" style="rounded=1;whiteSpace=wrap;html=1;" parent="1" vertex="1">
          <mxGeometry x="150" y="330" width="120" height="60" as="geometry" />
        </mxCell>
        <mxCell id="-BAnb1DK9DFcd0QEzXmj-15" value="Use" style="endArrow=open;endSize=12;dashed=1;html=1;" parent="1" source="-BAnb1DK9DFcd0QEzXmj-13" target="-BAnb1DK9DFcd0QEzXmj-14" edge="1">
          <mxGeometry width="160" relative="1" as="geometry">
            <mxPoint x="330" y="260" as="sourcePoint" />
            <mxPoint x="490" y="260" as="targetPoint" />
          </mxGeometry>
        </mxCell>
        <mxCell id="-BAnb1DK9DFcd0QEzXmj-17" value="Extends" style="endArrow=block;endSize=16;endFill=0;html=1;" parent="1" source="-BAnb1DK9DFcd0QEzXmj-18" target="-BAnb1DK9DFcd0QEzXmj-20" edge="1">
          <mxGeometry width="160" relative="1" as="geometry">
            <mxPoint x="100" y="780" as="sourcePoint" />
            <mxPoint x="367.5" y="710" as="targetPoint" />
          </mxGeometry>
        </mxCell>
        <mxCell id="-BAnb1DK9DFcd0QEzXmj-18" value="UISprite" style="rounded=1;whiteSpace=wrap;html=1;" parent="1" vertex="1">
          <mxGeometry x="360" y="770" width="120" height="60" as="geometry" />
        </mxCell>
        <mxCell id="-BAnb1DK9DFcd0QEzXmj-19" value="Extends" style="endArrow=block;endSize=16;endFill=0;html=1;" parent="1" source="-BAnb1DK9DFcd0QEzXmj-20" target="-BAnb1DK9DFcd0QEzXmj-13" edge="1">
          <mxGeometry width="160" relative="1" as="geometry">
            <mxPoint x="100" y="620" as="sourcePoint" />
            <mxPoint x="420" y="500" as="targetPoint" />
          </mxGeometry>
        </mxCell>
        <mxCell id="-BAnb1DK9DFcd0QEzXmj-20" value="UIBasicSprite" style="rounded=1;whiteSpace=wrap;html=1;" parent="1" vertex="1">
          <mxGeometry x="360" y="610" width="120" height="60" as="geometry" />
        </mxCell>
        <mxCell id="-BAnb1DK9DFcd0QEzXmj-23" value="UITexture" style="rounded=1;whiteSpace=wrap;html=1;" parent="1" vertex="1">
          <mxGeometry x="200" y="770" width="120" height="60" as="geometry" />
        </mxCell>
        <mxCell id="-BAnb1DK9DFcd0QEzXmj-24" value="Extends" style="endArrow=block;endSize=16;endFill=0;html=1;" parent="1" source="-BAnb1DK9DFcd0QEzXmj-23" target="-BAnb1DK9DFcd0QEzXmj-20" edge="1">
          <mxGeometry width="160" relative="1" as="geometry">
            <mxPoint x="260" y="790" as="sourcePoint" />
            <mxPoint x="580" y="680" as="targetPoint" />
          </mxGeometry>
        </mxCell>
        <mxCell id="-BAnb1DK9DFcd0QEzXmj-25" value="UILabel" style="rounded=1;whiteSpace=wrap;html=1;" parent="1" vertex="1">
          <mxGeometry x="200" y="610" width="120" height="60" as="geometry" />
        </mxCell>
        <mxCell id="-BAnb1DK9DFcd0QEzXmj-26" value="Extends" style="endArrow=block;endSize=16;endFill=0;html=1;" parent="1" source="-BAnb1DK9DFcd0QEzXmj-25" target="-BAnb1DK9DFcd0QEzXmj-13" edge="1">
          <mxGeometry width="160" relative="1" as="geometry">
            <mxPoint x="250" y="620" as="sourcePoint" />
            <mxPoint x="570" y="470" as="targetPoint" />
          </mxGeometry>
        </mxCell>
        <mxCell id="-BAnb1DK9DFcd0QEzXmj-27" value="UIPanel" style="swimlane;fontStyle=1;align=center;verticalAlign=top;childLayout=stackLayout;horizontal=1;startSize=26;horizontalStack=0;resizeParent=1;resizeParentMax=0;resizeLast=0;collapsible=1;marginBottom=0;" parent="1" vertex="1">
          <mxGeometry x="140" y="1010" width="330" height="86" as="geometry" />
        </mxCell>
        <mxCell id="-BAnb1DK9DFcd0QEzXmj-33" value="+ List&lt;UIDrawCall&gt; drawCalls: UI所有的DC" style="text;strokeColor=none;fillColor=none;align=left;verticalAlign=top;spacingLeft=4;spacingRight=4;overflow=hidden;rotatable=0;points=[[0,0.5],[1,0.5]];portConstraint=eastwest;" parent="-BAnb1DK9DFcd0QEzXmj-27" vertex="1">
          <mxGeometry y="26" width="330" height="26" as="geometry" />
        </mxCell>
        <mxCell id="-BAnb1DK9DFcd0QEzXmj-29" value="" style="line;strokeWidth=1;fillColor=none;align=left;verticalAlign=middle;spacingTop=-1;spacingLeft=3;spacingRight=3;rotatable=0;labelPosition=right;points=[];portConstraint=eastwest;" parent="-BAnb1DK9DFcd0QEzXmj-27" vertex="1">
          <mxGeometry y="52" width="330" height="8" as="geometry" />
        </mxCell>
        <mxCell id="-BAnb1DK9DFcd0QEzXmj-30" value="+ method(type): type" style="text;strokeColor=none;fillColor=none;align=left;verticalAlign=top;spacingLeft=4;spacingRight=4;overflow=hidden;rotatable=0;points=[[0,0.5],[1,0.5]];portConstraint=eastwest;" parent="-BAnb1DK9DFcd0QEzXmj-27" vertex="1">
          <mxGeometry y="60" width="330" height="26" as="geometry" />
        </mxCell>
        <mxCell id="-BAnb1DK9DFcd0QEzXmj-34" value="UIDrawCall" style="swimlane;fontStyle=1;align=center;verticalAlign=top;childLayout=stackLayout;horizontal=1;startSize=26;horizontalStack=0;resizeParent=1;resizeParentMax=0;resizeLast=0;collapsible=1;marginBottom=0;" parent="1" vertex="1">
          <mxGeometry x="140" y="1220" width="330" height="86" as="geometry" />
        </mxCell>
        <mxCell id="-BAnb1DK9DFcd0QEzXmj-35" value="+ sss: xxx" style="text;strokeColor=none;fillColor=none;align=left;verticalAlign=top;spacingLeft=4;spacingRight=4;overflow=hidden;rotatable=0;points=[[0,0.5],[1,0.5]];portConstraint=eastwest;" parent="-BAnb1DK9DFcd0QEzXmj-34" vertex="1">
          <mxGeometry y="26" width="330" height="26" as="geometry" />
        </mxCell>
        <mxCell id="-BAnb1DK9DFcd0QEzXmj-37" value="" style="line;strokeWidth=1;fillColor=none;align=left;verticalAlign=middle;spacingTop=-1;spacingLeft=3;spacingRight=3;rotatable=0;labelPosition=right;points=[];portConstraint=eastwest;" parent="-BAnb1DK9DFcd0QEzXmj-34" vertex="1">
          <mxGeometry y="52" width="330" height="8" as="geometry" />
        </mxCell>
        <mxCell id="-BAnb1DK9DFcd0QEzXmj-38" value="+ UpdateGeometry(int): void   //主要绘制UI的函数" style="text;strokeColor=none;fillColor=none;align=left;verticalAlign=top;spacingLeft=4;spacingRight=4;overflow=hidden;rotatable=0;points=[[0,0.5],[1,0.5]];portConstraint=eastwest;" parent="-BAnb1DK9DFcd0QEzXmj-34" vertex="1">
          <mxGeometry y="60" width="330" height="26" as="geometry" />
        </mxCell>
        <mxCell id="2KKpLDcR96IpIq7rCUSi-1" value="UIFont" style="rounded=1;whiteSpace=wrap;html=1;" parent="1" vertex="1">
          <mxGeometry x="915" y="660" width="120" height="60" as="geometry" />
        </mxCell>
        <mxCell id="2KKpLDcR96IpIq7rCUSi-2" value="MonoBehaviour" style="verticalAlign=top;align=left;spacingTop=8;spacingLeft=2;spacingRight=12;shape=cube;size=10;direction=south;fontStyle=4;html=1;" parent="1" vertex="1">
          <mxGeometry x="920" y="420" width="110" height="80" as="geometry" />
        </mxCell>
        <mxCell id="2KKpLDcR96IpIq7rCUSi-3" value="Extends" style="endArrow=block;endSize=16;endFill=0;html=1;" parent="1" source="2KKpLDcR96IpIq7rCUSi-1" target="2KKpLDcR96IpIq7rCUSi-2" edge="1">
          <mxGeometry width="160" relative="1" as="geometry">
            <mxPoint x="570" y="420" as="sourcePoint" />
            <mxPoint x="970" y="550" as="targetPoint" />
          </mxGeometry>
        </mxCell>
        <mxCell id="2KKpLDcR96IpIq7rCUSi-4" value="Font" style="verticalAlign=top;align=left;spacingTop=8;spacingLeft=2;spacingRight=12;shape=cube;size=10;direction=south;fontStyle=4;html=1;" parent="1" vertex="1">
          <mxGeometry x="1090" y="420" width="110" height="80" as="geometry" />
        </mxCell>
        <mxCell id="2KKpLDcR96IpIq7rCUSi-5" value="NGUIText&lt;br&gt;静态类，应该时字体排版计算的辅助类" style="rounded=1;whiteSpace=wrap;html=1;" parent="1" vertex="1">
          <mxGeometry x="1270" y="760" width="120" height="60" as="geometry" />
        </mxCell>
        <mxCell id="2KKpLDcR96IpIq7rCUSi-8" value="" style="edgeStyle=orthogonalEdgeStyle;rounded=0;orthogonalLoop=1;jettySize=auto;html=1;" parent="1" source="2KKpLDcR96IpIq7rCUSi-6" target="2KKpLDcR96IpIq7rCUSi-7" edge="1">
          <mxGeometry relative="1" as="geometry" />
        </mxCell>
        <mxCell id="2KKpLDcR96IpIq7rCUSi-6" value="UILabel" style="rounded=1;whiteSpace=wrap;html=1;" parent="1" vertex="1">
          <mxGeometry x="1090" y="730" width="120" height="60" as="geometry" />
        </mxCell>
        <mxCell id="2KKpLDcR96IpIq7rCUSi-7" value="&amp;nbsp; 查看NGUI架构" style="shape=step;perimeter=stepPerimeter;whiteSpace=wrap;html=1;fixedSize=1;rounded=1;" parent="1" vertex="1">
          <mxGeometry x="1095" y="620" width="110" height="40" as="geometry" />
        </mxCell>
      </root>
    </mxGraphModel>
  </diagram>
</mxfile>
